<?xml version="1.0"?>
<svg width="1102" height="278" xmlns="http://www.w3.org/2000/svg" xmlns:svg="http://www.w3.org/2000/svg">
 <g class="layer">
  <title>Layer 1</title>
  <path d="m82.32,28.64c-10.78,-12.79 -20.07,-25.79 -21.97,-28.49c-0.2,-0.2 -0.5,-0.2 -0.7,0c-1.9,2.7 -11.18,15.7 -21.97,28.49c-92.58,118.08 14.58,197.77 14.58,197.77l0.9,0.6c0.8,12.29 2.8,29.99 2.8,29.99l3.99,0l4,0c0,0 1.99,-17.6 2.79,-29.99l0.9,-0.7c0.1,0 107.27,-79.59 14.68,-197.67zm-22.37,195.97c0,0 -4.79,-4.1 -6.09,-6.2l0,-0.2l5.79,-128.58c0,-0.4 0.6,-0.4 0.6,0l5.79,128.58l0,0.2c-1.29,2.1 -6.09,6.2 -6.09,6.2z" fill="#000000" id="svg_1"/>
  <path d="m260.5,197.59l-44.66,-108.29l-0.09,-0.3l-34.75,0l0,7.28l5.61,0c1.7,0 3.3,0.7 4.5,1.89c1.2,1.2 1.81,2.8 1.81,4.49l-1.01,108.99c0,3.39 -2.8,6.18 -6.2,6.28l-5.71,0.1l0,7.18l33.84,0l0,-7.18l-3.5,-0.1c-3.41,-0.1 -6.21,-2.89 -6.21,-6.28l0,-102.71l48.66,116.27c0.7,1.69 2.3,2.79 4.11,2.79c1.8,0 3.4,-1.1 4.1,-2.79l47.56,-113.68l0.7,100.12c0,3.49 -2.8,6.28 -6.31,6.38l-3.6,0l0,7.18l39.65,0l0,-7.18l-5.41,0c-3.4,0 -6.21,-2.89 -6.3,-6.28l-0.3,-108.99c0,-3.49 2.8,-6.28 6.2,-6.38l5.81,-0.1l0,-7.28l-33.84,0l-44.66,108.59z" fill="#000000" id="svg_2"/>
  <path d="m571.87,216.96c-1.11,-1.11 -1.71,-2.62 -1.71,-4.43l0,-53.87c0,-10.25 -3.01,-18.29 -9.03,-24.02c-5.92,-5.73 -14.16,-8.64 -24.4,-8.64c-14.35,0 -25.69,5.83 -33.63,17.29c-0.1,0.2 -0.4,0.3 -0.7,0.3c-0.3,0 -0.5,-0.2 -0.5,-0.5l-3.71,-14.38l-6.23,0l-15.96,9.15l0,5.02l4.12,0c1.9,0 3.51,0.51 4.61,1.51c1.11,1.01 1.71,2.52 1.71,4.62l0,63.42c0,1.81 -0.6,3.32 -1.71,4.42c-1.1,1.11 -2.61,1.71 -4.41,1.71l-4.02,0l0,7.34l36.74,0l0,-7.34l-4.01,0c-1.81,0 -3.32,-0.6 -4.42,-1.71c-1.1,-1.1 -1.71,-2.61 -1.71,-4.42l0,-41.81c0,-5.32 1.21,-10.65 3.42,-15.88c2.31,-5.12 5.72,-9.44 10.24,-12.76c4.51,-3.32 9.93,-4.92 16.16,-4.92c7.03,0 12.35,2.21 15.66,6.63c3.31,4.42 5.02,10.15 5.02,16.98l0,51.86c0,1.81 -0.61,3.32 -1.71,4.43c-1.1,1.1 -2.61,1.7 -4.42,1.7l-4.01,0l0,7.34l36.74,0l0,-7.34l-4.01,0c-1.51,0 -2.92,-0.5 -4.12,-1.7z" fill="#000000" id="svg_3"/>
  <path d="m907.55,97.21c-10.16,-5.41 -21.51,-8.21 -33.76,-8.21l-47.79,0l0,7.31l4.68,0c1.79,0 3.39,0.7 4.98,2.3c1.49,1.51 2.29,3.21 2.29,5.01l0,107.76c0,1.8 -0.8,3.5 -2.29,5.01c-1.5,1.5 -3.19,2.3 -4.98,2.3l-4.68,0l0,7.31l47.79,0c12.25,0 23.6,-2.8 33.76,-8.21c10.15,-5.41 18.42,-13.42 24.39,-23.64c5.97,-10.21 9.06,-22.53 9.06,-36.55c0,-14.02 -3.09,-26.24 -9.06,-36.55c-6.07,-10.42 -14.24,-18.43 -24.39,-23.84zm14.23,60.19c0,12.82 -2.29,23.63 -6.77,32.35c-4.48,8.71 -10.45,15.22 -17.82,19.43c-7.37,4.2 -15.53,6.31 -24.29,6.31l-9.66,0c-1.79,0 -3.39,-0.71 -4.98,-2.31c-1.49,-1.5 -2.29,-3.2 -2.29,-5.01l0,-101.54c0,-1.81 0.7,-3.41 2.29,-5.01c1.49,-1.5 3.19,-2.3 4.98,-2.3l9.66,0c8.76,0 16.92,2.1 24.29,6.3c7.37,4.21 13.34,10.72 17.82,19.43c4.48,8.71 6.77,19.53 6.77,32.35z" fill="#000000" id="svg_4"/>
  <path d="m1053.97,164.71c-4.42,-5.11 -12.95,-9.41 -22.98,-11.72c13.85,-6.91 20.97,-16.62 20.97,-29.14c0,-6.81 -1.8,-12.92 -5.42,-18.13c-3.61,-5.2 -8.73,-9.41 -15.25,-12.31c-6.53,-2.91 -14.16,-4.41 -22.79,-4.41l-54.1,0l0,7.31l4.32,0c1.8,0 3.41,0.7 5.02,2.3c1.5,1.51 2.3,3.21 2.3,5.01l0,107.76c0,1.8 -0.8,3.5 -2.3,5.01c-1.51,1.5 -3.22,2.3 -5.02,2.3l-4.72,0l0,7.31l58.72,0c8.93,0 17.26,-1.5 24.79,-4.51c7.53,-3 13.55,-7.41 17.87,-13.22c4.41,-5.8 6.62,-12.92 6.62,-21.13c-0.1,-8.81 -2.71,-16.22 -8.03,-22.43zm-67.35,48.57c-1.5,-1.5 -2.31,-3.2 -2.31,-5.01l0,-48.37l27.91,0c9.83,0 17.36,2.51 22.58,7.51c5.22,5.01 7.83,11.52 7.83,19.53c0,4.81 -1.21,9.52 -3.41,13.82c-2.31,4.41 -5.73,7.92 -10.34,10.62c-4.52,2.7 -10.14,4.11 -16.66,4.11l-20.58,0c-1.81,0.1 -3.41,-0.61 -5.02,-2.21zm-2.21,-63.69l0,-42.96c0,-1.81 0.71,-3.41 2.31,-5.01c1.51,-1.5 3.21,-2.3 5.02,-2.3l13.25,0c9.53,0 16.56,2.4 20.98,7.01c4.41,4.7 6.62,10.71 6.62,18.12c0,7.61 -2.11,13.72 -6.22,18.33c-4.12,4.5 -10.34,6.81 -18.57,6.81l-23.39,0z" fill="#000000" id="svg_5"/>
  <path d="m432,132.39c-7.67,-4.19 -16.24,-6.39 -25.5,-6.39c-9.26,0 -17.93,2.1 -25.5,6.39c-7.67,4.19 -13.75,10.28 -18.23,17.96c-4.48,7.69 -6.77,16.67 -6.77,26.65c0,9.98 2.29,18.96 6.77,26.65c4.48,7.68 10.56,13.77 18.23,17.96c7.67,4.19 16.24,6.39 25.5,6.39c9.26,0 17.93,-2.1 25.5,-6.39c7.67,-4.19 13.75,-10.28 18.23,-17.96c4.48,-7.69 6.77,-16.67 6.77,-26.65c0,-9.98 -2.29,-18.96 -6.77,-26.65c-4.48,-7.78 -10.56,-13.77 -18.23,-17.96zm7.37,44.61c0,12.28 -2.99,22.26 -8.97,29.44c-5.87,7.19 -13.94,10.88 -23.9,10.88c-9.96,0 -18.03,-3.69 -23.9,-10.88c-5.98,-7.18 -8.97,-17.16 -8.97,-29.44c0,-12.28 2.99,-22.26 8.97,-29.44c5.87,-7.19 13.94,-10.88 23.9,-10.88c9.96,0 18.03,3.69 23.9,10.88c5.98,7.18 8.97,17.06 8.97,29.44z" fill="#000000" id="svg_6"/>
  <path d="m785,132.39c-7.67,-4.19 -16.24,-6.39 -25.5,-6.39c-9.26,0 -17.93,2.1 -25.5,6.39c-7.67,4.19 -13.75,10.28 -18.23,17.96c-4.48,7.69 -6.77,16.67 -6.77,26.65c0,9.98 2.29,18.96 6.77,26.65c4.48,7.68 10.56,13.77 18.23,17.96c7.67,4.19 16.24,6.39 25.5,6.39c9.26,0 17.93,-2.1 25.5,-6.39c7.67,-4.19 13.75,-10.28 18.23,-17.96c4.48,-7.69 6.77,-16.67 6.77,-26.65c0,-9.98 -2.29,-18.96 -6.77,-26.65c-4.48,-7.78 -10.66,-13.77 -18.23,-17.96zm7.37,44.61c0,12.28 -2.99,22.26 -8.97,29.44c-5.87,7.19 -13.94,10.88 -23.9,10.88c-9.96,0 -18.03,-3.69 -23.9,-10.88c-5.98,-7.18 -8.97,-17.16 -8.97,-29.44c0,-12.38 2.99,-22.26 8.97,-29.44c5.87,-7.19 13.94,-10.88 23.9,-10.88c9.96,0 18.03,3.69 23.9,10.88c5.88,7.18 8.97,17.06 8.97,29.44z" fill="#000000" id="svg_7"/>
  <path d="m642.64,126c-8.03,0 -15.35,1.7 -21.97,5.11c-6.62,3.41 -11.84,8.02 -15.55,13.94c-3.71,5.82 -5.62,12.33 -5.62,19.25c0,6.22 1.41,11.93 4.32,17.05c2.81,4.91 6.62,9.02 11.43,12.43l-14.34,19.45c-1.81,2.41 -2.01,5.61 -0.7,8.22c1.4,2.71 4.01,4.31 7.02,4.31l4.11,0c-4.01,2.71 -7.22,5.92 -9.43,9.73c-2.61,4.31 -3.91,8.82 -3.91,13.43c0,8.63 3.81,15.75 11.34,21.06c7.42,5.31 17.85,8.02 30.99,8.02c9.13,0 17.86,-1.5 25.78,-4.41c8.03,-2.91 14.55,-7.22 19.36,-12.84c4.92,-5.61 7.43,-12.43 7.43,-20.25c0,-8.22 -3.01,-14.04 -10.03,-19.65c-6.02,-4.71 -15.45,-7.22 -27.19,-7.22l-40.13,0c-0.09,0 -0.2,-0.1 -0.2,-0.1c0,0 -0.1,-0.2 0,-0.3l10.44,-14.04c2.81,1.31 5.41,2.11 7.72,2.61c2.41,0.5 5.12,0.7 8.13,0.7c8.42,0 16.05,-1.7 22.67,-5.11c6.62,-3.41 11.94,-8.02 15.75,-13.94c3.81,-5.81 5.71,-12.33 5.71,-19.25c0,-7.42 -3.61,-20.95 -13.44,-27.87c0,-0.1 0.1,-0.1 0.1,-0.1l21.57,2.4l0,-9.92l-34.51,0c-5.41,-1.81 -11.03,-2.71 -16.85,-2.71zm12.04,62.76c-3.81,2.01 -7.93,3.11 -12.04,3.11c-6.72,0 -12.64,-2.4 -17.66,-7.12c-5.01,-4.71 -7.52,-11.63 -7.52,-20.45c0,-8.82 2.51,-15.74 7.52,-20.45c5.02,-4.72 10.94,-7.12 17.66,-7.12c4.21,0 8.23,1 12.04,3.11c3.81,2 6.92,5.11 9.43,9.22c2.4,4.11 3.71,9.22 3.71,15.24c0,6.12 -1.21,11.23 -3.71,15.24c-2.41,4.11 -5.62,7.12 -9.43,9.22zm-27.19,36.9l27.19,0c7.52,0 12.34,1.51 15.55,4.72c3.21,3.2 4.81,7.51 4.81,12.53c0,7.32 -2.91,13.33 -8.73,17.84c-5.81,4.52 -13.64,6.82 -23.27,6.82c-8.43,0 -15.45,-1.9 -20.56,-5.51c-5.12,-3.61 -7.73,-9.13 -7.73,-16.14c0,-4.42 1.21,-8.53 3.61,-12.14c2.41,-3.61 5.32,-6.21 9.13,-8.12z" fill="#000000" id="svg_8"/>
  <path d="m1082.35,224.33c-1.98,-1.09 -3.47,-2.66 -4.66,-4.53c-1.09,-1.97 -1.69,-4.04 -1.69,-6.3c0,-2.26 0.6,-4.43 1.69,-6.3c1.09,-1.97 2.68,-3.44 4.66,-4.53c1.99,-1.08 4.17,-1.67 6.65,-1.67c2.48,0 4.66,0.59 6.65,1.67c1.98,1.09 3.47,2.66 4.66,4.53c1.09,1.97 1.69,4.04 1.69,6.3c0,2.26 -0.6,4.43 -1.69,6.3c-1.09,1.97 -2.68,3.44 -4.66,4.53c-1.99,1.08 -4.17,1.67 -6.65,1.67c-2.38,0 -4.66,-0.59 -6.65,-1.67zm12.21,-1.48c1.68,-0.88 2.88,-2.26 3.87,-3.84c0.89,-1.67 1.39,-3.54 1.39,-5.61c0,-2.06 -0.5,-3.93 -1.39,-5.61c-0.9,-1.67 -2.19,-2.95 -3.87,-3.84c-1.69,-0.88 -3.48,-1.38 -5.56,-1.38c-2.08,0 -3.87,0.5 -5.56,1.38c-1.68,0.89 -2.88,2.27 -3.87,3.84c-0.89,1.68 -1.39,3.55 -1.39,5.61c0,2.07 0.5,3.94 1.39,5.61c0.9,1.68 2.19,2.96 3.87,3.84c1.69,0.89 3.48,1.38 5.56,1.38c2.08,0 3.97,-0.39 5.56,-1.38zm-10.92,-3.44l0,-0.89l0.2,-0.1l0.6,0c0.19,0 0.39,-0.1 0.49,-0.2c0.2,-0.19 0.2,-0.29 0.2,-0.49l0,-9.15c0,-0.2 -0.1,-0.39 -0.2,-0.49c-0.2,-0.2 -0.3,-0.2 -0.49,-0.2l-0.6,0l-0.2,-0.1l0,-0.88l0.2,-0.1l5.16,0c1.49,0 2.58,0.29 3.47,0.98c0.9,0.69 1.29,1.58 1.29,2.76c0,0.88 -0.29,1.77 -0.99,2.36c-0.69,0.69 -1.49,1.08 -2.48,1.18l1.19,0.39l2.28,3.65c0.2,0.29 0.4,0.39 0.7,0.39l0.59,0l0.1,0.1l0,0.88l-0.1,0.1l-3.07,0l-0.2,-0.1l-3.18,-5.31l-0.79,0l0,3.54c0,0.2 0.1,0.4 0.2,0.49c0.2,0.2 0.3,0.2 0.49,0.2l0.6,0l0.2,0.1l0,0.89l-0.2,0.09l-5.26,0l-0.2,-0.09zm5.06,-6.4c0.8,0 1.49,-0.2 1.89,-0.69c0.39,-0.39 0.69,-1.08 0.69,-1.87c0,-0.79 -0.2,-1.38 -0.59,-1.87c-0.4,-0.49 -1,-0.69 -1.69,-0.69l-0.4,0c-0.2,0 -0.39,0.1 -0.49,0.2c-0.2,0.19 -0.2,0.29 -0.2,0.49l0,4.43l0.79,0z" fill="#000000" id="svg_9"/>
 </g>
</svg>